<?xml version="1.0" encoding="UTF-8" standalone="no"?>
<!DOCTYPE svg PUBLIC "-//W3C//DTD SVG 1.1//EN"
 "http://www.w3.org/Graphics/SVG/1.1/DTD/svg11.dtd">
<!-- Generated by graphviz version 2.43.0 (0)
 -->
<!-- Title: workflow Pages: 1 -->
<svg width="386pt" height="328pt"
 viewBox="0.00 0.00 386.00 328.00" xmlns="http://www.w3.org/2000/svg" xmlns:xlink="http://www.w3.org/1999/xlink">
<g id="graph0" class="graph" transform="scale(1 1) rotate(0) translate(4 324)">
<title>workflow</title>
<polygon fill="white" stroke="transparent" points="-4,4 -4,-324 382,-324 382,4 -4,4"/>
<text text-anchor="start" x="140.5" y="-8.8" font-family="Times,serif" font-weight="bold" font-size="14.00">TargetWorkflow</text>
<!-- place_u -->
<g id="node1" class="node">
<title>place_u</title>
<ellipse fill="lightgreen" stroke="lightBlue" cx="144" cy="-275" rx="72" ry="36"/>
<text text-anchor="start" x="141" y="-277.6" font-family="Arial" font-weight="bold" font-size="8.00">u</text>
<text text-anchor="start" x="129.5" y="-269.6" font-family="Arial" font-style="italic" font-size="8.00">pending</text>
<text text-anchor="middle" x="56.5" y="-313.6" font-family="Arial" font-size="8.00">Place u: </text>
</g>
<!-- transition_translate -->
<g id="node4" class="node">
<title>transition_translate</title>
<polygon fill="lightBlue" stroke="lightBlue" points="216,-203 72,-203 72,-131 216,-131 216,-203"/>
<text text-anchor="start" x="126.5" y="-166.1" font-family="Arial" font-weight="bold" font-size="8.00">translate</text>
<text text-anchor="middle" x="36" y="-205.6" font-family="Arial" font-size="8.00">Transition translate: </text>
</g>
<!-- place_u&#45;&gt;transition_translate -->
<!-- u -->
<g id="edge1" class="edge">
<title>place_u&#45;&gt;transition_translate</title>
<path fill="none" stroke="#333333" d="M144,-239C144,-229.24 144,-218.56 144,-208.51"/>
<polygon fill="#333333" stroke="#333333" points="145.75,-208.33 144,-203.33 142.25,-208.33 145.75,-208.33"/>
</g>
<!-- place_t -->
<g id="node2" class="node">
<title>place_t</title>
<ellipse fill="lightgreen" stroke="lightBlue" cx="144" cy="-59" rx="72" ry="36"/>
<text text-anchor="start" x="142" y="-61.6" font-family="Arial" font-weight="bold" font-size="8.00">t</text>
<text text-anchor="start" x="126" y="-53.6" font-family="Arial" font-style="italic" font-size="8.00">translated</text>
<text text-anchor="middle" x="57.5" y="-97.6" font-family="Arial" font-size="8.00">Place t: </text>
</g>
<!-- place_i -->
<g id="node3" class="node">
<title>place_i</title>
<ellipse fill="lightgreen" stroke="lightBlue" cx="306" cy="-275" rx="72" ry="36"/>
<text text-anchor="start" x="304.5" y="-277.6" font-family="Arial" font-weight="bold" font-size="8.00">i</text>
<text text-anchor="start" x="291.5" y="-269.6" font-family="Arial" font-style="italic" font-size="8.00">identical</text>
<text text-anchor="middle" x="175" y="-313.6" font-family="Arial" font-size="8.00">Place i: source exists elsewhere?</text>
</g>
<!-- transition_translate&#45;&gt;place_t -->
<g id="edge2" class="edge">
<title>transition_translate&#45;&gt;place_t</title>
<path fill="none" stroke="#333333" d="M144,-131C144,-121.24 144,-110.56 144,-100.51"/>
<polygon fill="#333333" stroke="#333333" points="145.75,-100.33 144,-95.33 142.25,-100.33 145.75,-100.33"/>
</g>
</g>
</svg>
